{"accessors":[{"bufferView":0,"byteOffset":0,"componentType":5126,"count":115,"max":[-0.009000000000000038,0.026999999999999997,-1.5e-17],"min":[-0.014000000000000042,0.0060000000000000048,-0.021000000000000055],"type":"VEC3"},{"bufferView":0,"byteOffset":1380,"componentType":5126,"count":3,"max":[-0.010000000000000014,0.02599999999999998,-1.7000000000000003e-17],"min":[-0.010000000000000039,0.0059999999999999979,-0.02000000000000004],"type":"VEC3"},{"bufferView":0,"byteOffset":1416,"componentType":5126,"count":69,"max":[-0.009000000000000015,0.026999999999999984,-0.020000000000000029],"min":[-0.010000000000000039,0.005999999999999991,-0.02100000000000004],"type":"VEC3"},{"bufferView":0,"byteOffset":2244,"componentType":5126,"count":6,"max":[0.010999999999999988,0.006000000000000029,-6e-18],"min":[-0.011000000000000038,1e-18,-1.7000000000000003e-17],"type":"VEC3"},{"bufferView":0,"byteOffset":2316,"componentType":5126,"count":8,"max":[0.011000000000000007,0.027000000000000015,-0.02100000000000004],"min":[-0.011000000000000017,0.02699999999999998,-0.02700000000000006],"type":"VEC3"},{"bufferView":0,"byteOffset":2412,"componentType":5126,"count":75,"max":[-0.01100000000000003,0.008999999999999972,-1.2e-17],"min":[-0.014000000000000042,-1.3e-17,-0.003000000000000017],"type":"VEC3"},{"bufferView":0,"byteOffset":3312,"componentType":5126,"count":5,"max":[-0.014000000000000006,0.023999999999999988,-0.003000000000000012],"min":[-0.014000000000000042,-4.4408920985006267e-17,-0.027000000000000056],"type":"VEC3"},{"bufferView":0,"byteOffset":3372,"componentType":5126,"count":68,"max":[-0.011000000000000015,0.026999999999999987,-0.018000000000000066],"min":[-0.014000000000000013,0.023999999999999977,-0.027000000000000074],"type":"VEC3"},{"bufferView":0,"byteOffset":4188,"componentType":5126,"count":72,"max":[0.010000000000000002,0.006000000000000021,-6e-18],"min":[-0.010000000000000016,0.005999999999999991,-0.02100000000000003],"type":"VEC3"},{"bufferView":0,"byteOffset":5052,"componentType":5126,"count":8,"max":[0.009000000000000005,0.027,-0.02100000000000002],"min":[-0.009000000000000038,0.005999999999999991,-0.02100000000000004],"type":"VEC3"},{"bufferView":0,"byteOffset":5148,"componentType":5126,"count":72,"max":[0.014000000000000013,2.6e-17,-8e-18],"min":[-0.014000000000000028,-4.5e-17,-0.02700000000000004],"type":"VEC3"},{"bufferView":0,"byteOffset":6012,"componentType":5126,"count":123,"max":[0.014000000000000004,0.027000000000000015,-6e-18],"min":[0.00899999999999998,0.006000000000000021,-0.02100000000000005],"type":"VEC3"},{"bufferView":0,"byteOffset":7488,"componentType":5126,"count":75,"max":[0.01399999999999999,0.009000000000000014,-8e-18],"min":[0.010999999999999979,-1e-18,-0.003000000000000012],"type":"VEC3"},{"bufferView":0,"byteOffset":8388,"componentType":5126,"count":68,"max":[0.014000000000000006,0.027000000000000015,-0.018000000000000066],"min":[0.011000000000000005,0.02400000000000001,-0.027000000000000067],"type":"VEC3"},{"bufferView":0,"byteOffset":9204,"componentType":5126,"count":72,"max":[0.014000000000000013,0.027000000000000008,-0.02700000000000001],"min":[-0.01400000000000001,-4.5e-17,-0.027000000000000074],"type":"VEC3"},{"bufferView":0,"byteOffset":10068,"componentType":5126,"count":77,"max":[0.010000000000000002,0.027,-0.020000000000000029],"min":[0.00899999999999998,0.006000000000000006,-0.02100000000000004],"type":"VEC3"},{"bufferView":0,"byteOffset":10992,"componentType":5126,"count":3,"max":[0.010000000000000002,0.026000000000000028,-6e-18],"min":[0.009999999999999981,0.006000000000000013,-0.02000000000000004],"type":"VEC3"},{"bufferView":0,"byteOffset":11028,"componentType":5126,"count":4,"max":[0.003199999999999998,0.006000000000000003,-0.017000000000000037],"min":[-0.00320000000000001,-1e-18,-0.017000000000000037],"type":"VEC3"},{"bufferView":0,"byteOffset":11076,"componentType":5126,"count":4,"max":[-0.003200000000000005,0.006000000000000008,-0.007000000000000034],"min":[-0.00320000000000001,-1e-18,-0.017000000000000037],"type":"VEC3"},{"bufferView":0,"byteOffset":11124,"componentType":5126,"count":4,"max":[0.003199999999999999,0.00600000000000001,-0.007000000000000031],"min":[-0.0032000000000000094,7e-18,-0.007000000000000037],"type":"VEC3"},{"bufferView":0,"byteOffset":11172,"componentType":5126,"count":4,"max":[0.003199999999999999,0.00600000000000001,-0.007000000000000031],"min":[0.003199999999999994,1e-18,-0.017000000000000037],"type":"VEC3"},{"bufferView":0,"byteOffset":11220,"componentType":5126,"count":4,"max":[0.003200000000000001,0.019999999999999984,-0.02100000000000002],"min":[0.003199999999999997,0.00999999999999998,-0.027000000000000025],"type":"VEC3"},{"bufferView":0,"byteOffset":11268,"componentType":5126,"count":4,"max":[0.003200000000000001,0.009999999999999985,-0.02100000000000002],"min":[-0.003200000000000002,0.00999999999999998,-0.027000000000000018],"type":"VEC3"},{"bufferView":0,"byteOffset":11316,"componentType":5126,"count":4,"max":[-0.003200000000000001,0.019999999999999984,-0.02100000000000002],"min":[-0.0032000000000000064,0.00999999999999998,-0.027000000000000025],"type":"VEC3"},{"bufferView":0,"byteOffset":11364,"componentType":5126,"count":4,"max":[0.003199999999999998,0.019999999999999984,-0.021000000000000027],"min":[-0.0032000000000000064,0.019999999999999984,-0.027000000000000025],"type":"VEC3"},{"bufferView":0,"byteOffset":11412,"componentType":5126,"count":5,"max":[0.014000000000000013,0.02400000000000002,-0.003000000000000008],"min":[0.013999999999999978,-3.375077994860476e-17,-0.027000000000000025],"type":"VEC3"},{"bufferView":1,"byteOffset":0,"componentType":5126,"count":115,"type":"VEC3"},{"bufferView":1,"byteOffset":1380,"componentType":5126,"count":3,"type":"VEC3"},{"bufferView":1,"byteOffset":1416,"componentType":5126,"count":69,"type":"VEC3"},{"bufferView":1,"byteOffset":2244,"componentType":5126,"count":6,"type":"VEC3"},{"bufferView":1,"byteOffset":2316,"componentType":5126,"count":8,"type":"VEC3"},{"bufferView":1,"byteOffset":2412,"componentType":5126,"count":75,"type":"VEC3"},{"bufferView":1,"byteOffset":3312,"componentType":5126,"count":5,"type":"VEC3"},{"bufferView":1,"byteOffset":3372,"componentType":5126,"count":68,"type":"VEC3"},{"bufferView":1,"byteOffset":4188,"componentType":5126,"count":72,"type":"VEC3"},{"bufferView":1,"byteOffset":5052,"componentType":5126,"count":8,"type":"VEC3"},{"bufferView":1,"byteOffset":5148,"componentType":5126,"count":72,"type":"VEC3"},{"bufferView":1,"byteOffset":6012,"componentType":5126,"count":123,"type":"VEC3"},{"bufferView":1,"byteOffset":7488,"componentType":5126,"count":75,"type":"VEC3"},{"bufferView":1,"byteOffset":8388,"componentType":5126,"count":68,"type":"VEC3"},{"bufferView":1,"byteOffset":9204,"componentType":5126,"count":72,"type":"VEC3"},{"bufferView":1,"byteOffset":10068,"componentType":5126,"count":77,"type":"VEC3"},{"bufferView":1,"byteOffset":10992,"componentType":5126,"count":3,"type":"VEC3"},{"bufferView":1,"byteOffset":11028,"componentType":5126,"count":4,"type":"VEC3"},{"bufferView":1,"byteOffset":11076,"componentType":5126,"count":4,"type":"VEC3"},{"bufferView":1,"byteOffset":11124,"componentType":5126,"count":4,"type":"VEC3"},{"bufferView":1,"byteOffset":11172,"componentType":5126,"count":4,"type":"VEC3"},{"bufferView":1,"byteOffset":11220,"componentType":5126,"count":4,"type":"VEC3"},{"bufferView":1,"byteOffset":11268,"componentType":5126,"count":4,"type":"VEC3"},{"bufferView":1,"byteOffset":11316,"componentType":5126,"count":4,"type":"VEC3"},{"bufferView":1,"byteOffset":11364,"componentType":5126,"count":4,"type":"VEC3"},{"bufferView":1,"byteOffset":11412,"componentType":5126,"count":5,"type":"VEC3"},{"bufferView":2,"byteOffset":0,"componentType":5123,"count":339,"type":"SCALAR"},{"bufferView":2,"byteOffset":680,"componentType":5123,"count":3,"type":"SCALAR"},{"bufferView":2,"byteOffset":688,"componentType":5123,"count":201,"type":"SCALAR"},{"bufferView":2,"byteOffset":1092,"componentType":5123,"count":12,"type":"SCALAR"},{"bufferView":2,"byteOffset":1116,"componentType":5123,"count":18,"type":"SCALAR"},{"bufferView":2,"byteOffset":1152,"componentType":5123,"count":219,"type":"SCALAR"},{"bufferView":2,"byteOffset":1592,"componentType":5123,"count":9,"type":"SCALAR"},{"bufferView":2,"byteOffset":1612,"componentType":5123,"count":198,"type":"SCALAR"},{"bufferView":2,"byteOffset":2008,"componentType":5123,"count":216,"type":"SCALAR"},{"bufferView":2,"byteOffset":2440,"componentType":5123,"count":24,"type":"SCALAR"},{"bufferView":2,"byteOffset":2488,"componentType":5123,"count":216,"type":"SCALAR"},{"bufferView":2,"byteOffset":2920,"componentType":5123,"count":363,"type":"SCALAR"},{"bufferView":2,"byteOffset":3648,"componentType":5123,"count":219,"type":"SCALAR"},{"bufferView":2,"byteOffset":4088,"componentType":5123,"count":198,"type":"SCALAR"},{"bufferView":2,"byteOffset":4484,"componentType":5123,"count":216,"type":"SCALAR"},{"bufferView":2,"byteOffset":4916,"componentType":5123,"count":225,"type":"SCALAR"},{"bufferView":2,"byteOffset":5368,"componentType":5123,"count":3,"type":"SCALAR"},{"bufferView":2,"byteOffset":5376,"componentType":5123,"count":6,"type":"SCALAR"},{"bufferView":2,"byteOffset":5388,"componentType":5123,"count":6,"type":"SCALAR"},{"bufferView":2,"byteOffset":5400,"componentType":5123,"count":6,"type":"SCALAR"},{"bufferView":2,"byteOffset":5412,"componentType":5123,"count":6,"type":"SCALAR"},{"bufferView":2,"byteOffset":5424,"componentType":5123,"count":6,"type":"SCALAR"},{"bufferView":2,"byteOffset":5436,"componentType":5123,"count":6,"type":"SCALAR"},{"bufferView":2,"byteOffset":5448,"componentType":5123,"count":6,"type":"SCALAR"},{"bufferView":2,"byteOffset":5460,"componentType":5123,"count":6,"type":"SCALAR"},{"bufferView":2,"byteOffset":5472,"componentType":5123,"count":9,"type":"SCALAR"}],"asset":{"generator":"Open CASCADE Technology 7.9 [dev.opencascade.org]","version":"2.0"},"bufferViews":[{"buffer":0,"byteLength":11472,"byteOffset":0,"byteStride":12,"target":34962},{"buffer":0,"byteLength":11472,"byteOffset":11472,"byteStride":12,"target":34962},{"buffer":0,"byteLength":5492,"byteOffset":22944,"target":34963}],"buffers":[{"byteLength":28436,"uri":"open-vaporphase-right-frame.bin"}],"materials":[{"name":"mat_0","pbrMetallicRoughness":{"baseColorFactor":[0.16826939582824708,0.19120168685913087,0.2158605307340622,1.0]},"doubleSided":true}],"meshes":[{"name":"236-7194 90deg 3030 90deg m6","primitives":[{"attributes":{"NORMAL":26,"POSITION":0},"indices":52,"material":0,"mode":4},{"attributes":{"NORMAL":27,"POSITION":1},"indices":53,"material":0,"mode":4},{"attributes":{"NORMAL":28,"POSITION":2},"indices":54,"material":0,"mode":4},{"attributes":{"NORMAL":29,"POSITION":3},"indices":55,"material":0,"mode":4},{"attributes":{"NORMAL":30,"POSITION":4},"indices":56,"material":0,"mode":4},{"attributes":{"NORMAL":31,"POSITION":5},"indices":57,"material":0,"mode":4},{"attributes":{"NORMAL":32,"POSITION":6},"indices":58,"material":0,"mode":4},{"attributes":{"NORMAL":33,"POSITION":7},"indices":59,"material":0,"mode":4},{"attributes":{"NORMAL":34,"POSITION":8},"indices":60,"material":0,"mode":4},{"attributes":{"NORMAL":35,"POSITION":9},"indices":61,"material":0,"mode":4},{"attributes":{"NORMAL":36,"POSITION":10},"indices":62,"material":0,"mode":4},{"attributes":{"NORMAL":37,"POSITION":11},"indices":63,"material":0,"mode":4},{"attributes":{"NORMAL":38,"POSITION":12},"indices":64,"material":0,"mode":4},{"attributes":{"NORMAL":39,"POSITION":13},"indices":65,"material":0,"mode":4},{"attributes":{"NORMAL":40,"POSITION":14},"indices":66,"material":0,"mode":4},{"attributes":{"NORMAL":41,"POSITION":15},"indices":67,"material":0,"mode":4},{"attributes":{"NORMAL":42,"POSITION":16},"indices":68,"material":0,"mode":4},{"attributes":{"NORMAL":43,"POSITION":17},"indices":69,"material":0,"mode":4},{"attributes":{"NORMAL":44,"POSITION":18},"indices":70,"material":0,"mode":4},{"attributes":{"NORMAL":45,"POSITION":19},"indices":71,"material":0,"mode":4},{"attributes":{"NORMAL":46,"POSITION":20},"indices":72,"material":0,"mode":4},{"attributes":{"NORMAL":47,"POSITION":21},"indices":73,"material":0,"mode":4},{"attributes":{"NORMAL":48,"POSITION":22},"indices":74,"material":0,"mode":4},{"attributes":{"NORMAL":49,"POSITION":23},"indices":75,"material":0,"mode":4},{"attributes":{"NORMAL":50,"POSITION":24},"indices":76,"material":0,"mode":4},{"attributes":{"NORMAL":51,"POSITION":25},"indices":77,"material":0,"mode":4}]},{"name":"236-7194 90deg 3030 90deg m6","primitives":[{"attributes":{"NORMAL":26,"POSITION":0},"indices":52,"material":0,"mode":4},{"attributes":{"NORMAL":27,"POSITION":1},"indices":53,"material":0,"mode":4},{"attributes":{"NORMAL":28,"POSITION":2},"indices":54,"material":0,"mode":4},{"attributes":{"NORMAL":29,"POSITION":3},"indices":55,"material":0,"mode":4},{"attributes":{"NORMAL":30,"POSITION":4},"indices":56,"material":0,"mode":4},{"attributes":{"NORMAL":31,"POSITION":5},"indices":57,"material":0,"mode":4},{"attributes":{"NORMAL":32,"POSITION":6},"indices":58,"material":0,"mode":4},{"attributes":{"NORMAL":33,"POSITION":7},"indices":59,"material":0,"mode":4},{"attributes":{"NORMAL":34,"POSITION":8},"indices":60,"material":0,"mode":4},{"attributes":{"NORMAL":35,"POSITION":9},"indices":61,"material":0,"mode":4},{"attributes":{"NORMAL":36,"POSITION":10},"indices":62,"material":0,"mode":4},{"attributes":{"NORMAL":37,"POSITION":11},"indices":63,"material":0,"mode":4},{"attributes":{"NORMAL":38,"POSITION":12},"indices":64,"material":0,"mode":4},{"attributes":{"NORMAL":39,"POSITION":13},"indices":65,"material":0,"mode":4},{"attributes":{"NORMAL":40,"POSITION":14},"indices":66,"material":0,"mode":4},{"attributes":{"NORMAL":41,"POSITION":15},"indices":67,"material":0,"mode":4},{"attributes":{"NORMAL":42,"POSITION":16},"indices":68,"material":0,"mode":4},{"attributes":{"NORMAL":43,"POSITION":17},"indices":69,"material":0,"mode":4},{"attributes":{"NORMAL":44,"POSITION":18},"indices":70,"material":0,"mode":4},{"attributes":{"NORMAL":45,"POSITION":19},"indices":71,"material":0,"mode":4},{"attributes":{"NORMAL":46,"POSITION":20},"indices":72,"material":0,"mode":4},{"attributes":{"NORMAL":47,"POSITION":21},"indices":73,"material":0,"mode":4},{"attributes":{"NORMAL":48,"POSITION":22},"indices":74,"material":0,"mode":4},{"attributes":{"NORMAL":49,"POSITION":23},"indices":75,"material":0,"mode":4},{"attributes":{"NORMAL":50,"POSITION":24},"indices":76,"material":0,"mode":4},{"attributes":{"NORMAL":51,"POSITION":25},"indices":77,"material":0,"mode":4}]},{"name":"236-7194 90deg 3030 90deg m6","primitives":[{"attributes":{"NORMAL":26,"POSITION":0},"indices":52,"material":0,"mode":4},{"attributes":{"NORMAL":27,"POSITION":1},"indices":53,"material":0,"mode":4},{"attributes":{"NORMAL":28,"POSITION":2},"indices":54,"material":0,"mode":4},{"attributes":{"NORMAL":29,"POSITION":3},"indices":55,"material":0,"mode":4},{"attributes":{"NORMAL":30,"POSITION":4},"indices":56,"material":0,"mode":4},{"attributes":{"NORMAL":31,"POSITION":5},"indices":57,"material":0,"mode":4},{"attributes":{"NORMAL":32,"POSITION":6},"indices":58,"material":0,"mode":4},{"attributes":{"NORMAL":33,"POSITION":7},"indices":59,"material":0,"mode":4},{"attributes":{"NORMAL":34,"POSITION":8},"indices":60,"material":0,"mode":4},{"attributes":{"NORMAL":35,"POSITION":9},"indices":61,"material":0,"mode":4},{"attributes":{"NORMAL":36,"POSITION":10},"indices":62,"material":0,"mode":4},{"attributes":{"NORMAL":37,"POSITION":11},"indices":63,"material":0,"mode":4},{"attributes":{"NORMAL":38,"POSITION":12},"indices":64,"material":0,"mode":4},{"attributes":{"NORMAL":39,"POSITION":13},"indices":65,"material":0,"mode":4},{"attributes":{"NORMAL":40,"POSITION":14},"indices":66,"material":0,"mode":4},{"attributes":{"NORMAL":41,"POSITION":15},"indices":67,"material":0,"mode":4},{"attributes":{"NORMAL":42,"POSITION":16},"indices":68,"material":0,"mode":4},{"attributes":{"NORMAL":43,"POSITION":17},"indices":69,"material":0,"mode":4},{"attributes":{"NORMAL":44,"POSITION":18},"indices":70,"material":0,"mode":4},{"attributes":{"NORMAL":45,"POSITION":19},"indices":71,"material":0,"mode":4},{"attributes":{"NORMAL":46,"POSITION":20},"indices":72,"material":0,"mode":4},{"attributes":{"NORMAL":47,"POSITION":21},"indices":73,"material":0,"mode":4},{"attributes":{"NORMAL":48,"POSITION":22},"indices":74,"material":0,"mode":4},{"attributes":{"NORMAL":49,"POSITION":23},"indices":75,"material":0,"mode":4},{"attributes":{"NORMAL":50,"POSITION":24},"indices":76,"material":0,"mode":4},{"attributes":{"NORMAL":51,"POSITION":25},"indices":77,"material":0,"mode":4}]},{"name":"236-7194 90deg 3030 90deg m6","primitives":[{"attributes":{"NORMAL":26,"POSITION":0},"indices":52,"material":0,"mode":4},{"attributes":{"NORMAL":27,"POSITION":1},"indices":53,"material":0,"mode":4},{"attributes":{"NORMAL":28,"POSITION":2},"indices":54,"material":0,"mode":4},{"attributes":{"NORMAL":29,"POSITION":3},"indices":55,"material":0,"mode":4},{"attributes":{"NORMAL":30,"POSITION":4},"indices":56,"material":0,"mode":4},{"attributes":{"NORMAL":31,"POSITION":5},"indices":57,"material":0,"mode":4},{"attributes":{"NORMAL":32,"POSITION":6},"indices":58,"material":0,"mode":4},{"attributes":{"NORMAL":33,"POSITION":7},"indices":59,"material":0,"mode":4},{"attributes":{"NORMAL":34,"POSITION":8},"indices":60,"material":0,"mode":4},{"attributes":{"NORMAL":35,"POSITION":9},"indices":61,"material":0,"mode":4},{"attributes":{"NORMAL":36,"POSITION":10},"indices":62,"material":0,"mode":4},{"attributes":{"NORMAL":37,"POSITION":11},"indices":63,"material":0,"mode":4},{"attributes":{"NORMAL":38,"POSITION":12},"indices":64,"material":0,"mode":4},{"attributes":{"NORMAL":39,"POSITION":13},"indices":65,"material":0,"mode":4},{"attributes":{"NORMAL":40,"POSITION":14},"indices":66,"material":0,"mode":4},{"attributes":{"NORMAL":41,"POSITION":15},"indices":67,"material":0,"mode":4},{"attributes":{"NORMAL":42,"POSITION":16},"indices":68,"material":0,"mode":4},{"attributes":{"NORMAL":43,"POSITION":17},"indices":69,"material":0,"mode":4},{"attributes":{"NORMAL":44,"POSITION":18},"indices":70,"material":0,"mode":4},{"attributes":{"NORMAL":45,"POSITION":19},"indices":71,"material":0,"mode":4},{"attributes":{"NORMAL":46,"POSITION":20},"indices":72,"material":0,"mode":4},{"attributes":{"NORMAL":47,"POSITION":21},"indices":73,"material":0,"mode":4},{"attributes":{"NORMAL":48,"POSITION":22},"indices":74,"material":0,"mode":4},{"attributes":{"NORMAL":49,"POSITION":23},"indices":75,"material":0,"mode":4},{"attributes":{"NORMAL":50,"POSITION":24},"indices":76,"material":0,"mode":4},{"attributes":{"NORMAL":51,"POSITION":25},"indices":77,"material":0,"mode":4}]},{"name":"236-7194 90deg 3030 90deg m6","primitives":[{"attributes":{"NORMAL":26,"POSITION":0},"indices":52,"material":0,"mode":4},{"attributes":{"NORMAL":27,"POSITION":1},"indices":53,"material":0,"mode":4},{"attributes":{"NORMAL":28,"POSITION":2},"indices":54,"material":0,"mode":4},{"attributes":{"NORMAL":29,"POSITION":3},"indices":55,"material":0,"mode":4},{"attributes":{"NORMAL":30,"POSITION":4},"indices":56,"material":0,"mode":4},{"attributes":{"NORMAL":31,"POSITION":5},"indices":57,"material":0,"mode":4},{"attributes":{"NORMAL":32,"POSITION":6},"indices":58,"material":0,"mode":4},{"attributes":{"NORMAL":33,"POSITION":7},"indices":59,"material":0,"mode":4},{"attributes":{"NORMAL":34,"POSITION":8},"indices":60,"material":0,"mode":4},{"attributes":{"NORMAL":35,"POSITION":9},"indices":61,"material":0,"mode":4},{"attributes":{"NORMAL":36,"POSITION":10},"indices":62,"material":0,"mode":4},{"attributes":{"NORMAL":37,"POSITION":11},"indices":63,"material":0,"mode":4},{"attributes":{"NORMAL":38,"POSITION":12},"indices":64,"material":0,"mode":4},{"attributes":{"NORMAL":39,"POSITION":13},"indices":65,"material":0,"mode":4},{"attributes":{"NORMAL":40,"POSITION":14},"indices":66,"material":0,"mode":4},{"attributes":{"NORMAL":41,"POSITION":15},"indices":67,"material":0,"mode":4},{"attributes":{"NORMAL":42,"POSITION":16},"indices":68,"material":0,"mode":4},{"attributes":{"NORMAL":43,"POSITION":17},"indices":69,"material":0,"mode":4},{"attributes":{"NORMAL":44,"POSITION":18},"indices":70,"material":0,"mode":4},{"attributes":{"NORMAL":45,"POSITION":19},"indices":71,"material":0,"mode":4},{"attributes":{"NORMAL":46,"POSITION":20},"indices":72,"material":0,"mode":4},{"attributes":{"NORMAL":47,"POSITION":21},"indices":73,"material":0,"mode":4},{"attributes":{"NORMAL":48,"POSITION":22},"indices":74,"material":0,"mode":4},{"attributes":{"NORMAL":49,"POSITION":23},"indices":75,"material":0,"mode":4},{"attributes":{"NORMAL":50,"POSITION":24},"indices":76,"material":0,"mode":4},{"attributes":{"NORMAL":51,"POSITION":25},"indices":77,"material":0,"mode":4}]},{"name":"236-7194 90deg 3030 90deg m6","primitives":[{"attributes":{"NORMAL":26,"POSITION":0},"indices":52,"material":0,"mode":4},{"attributes":{"NORMAL":27,"POSITION":1},"indices":53,"material":0,"mode":4},{"attributes":{"NORMAL":28,"POSITION":2},"indices":54,"material":0,"mode":4},{"attributes":{"NORMAL":29,"POSITION":3},"indices":55,"material":0,"mode":4},{"attributes":{"NORMAL":30,"POSITION":4},"indices":56,"material":0,"mode":4},{"attributes":{"NORMAL":31,"POSITION":5},"indices":57,"material":0,"mode":4},{"attributes":{"NORMAL":32,"POSITION":6},"indices":58,"material":0,"mode":4},{"attributes":{"NORMAL":33,"POSITION":7},"indices":59,"material":0,"mode":4},{"attributes":{"NORMAL":34,"POSITION":8},"indices":60,"material":0,"mode":4},{"attributes":{"NORMAL":35,"POSITION":9},"indices":61,"material":0,"mode":4},{"attributes":{"NORMAL":36,"POSITION":10},"indices":62,"material":0,"mode":4},{"attributes":{"NORMAL":37,"POSITION":11},"indices":63,"material":0,"mode":4},{"attributes":{"NORMAL":38,"POSITION":12},"indices":64,"material":0,"mode":4},{"attributes":{"NORMAL":39,"POSITION":13},"indices":65,"material":0,"mode":4},{"attributes":{"NORMAL":40,"POSITION":14},"indices":66,"material":0,"mode":4},{"attributes":{"NORMAL":41,"POSITION":15},"indices":67,"material":0,"mode":4},{"attributes":{"NORMAL":42,"POSITION":16},"indices":68,"material":0,"mode":4},{"attributes":{"NORMAL":43,"POSITION":17},"indices":69,"material":0,"mode":4},{"attributes":{"NORMAL":44,"POSITION":18},"indices":70,"material":0,"mode":4},{"attributes":{"NORMAL":45,"POSITION":19},"indices":71,"material":0,"mode":4},{"attributes":{"NORMAL":46,"POSITION":20},"indices":72,"material":0,"mode":4},{"attributes":{"NORMAL":47,"POSITION":21},"indices":73,"material":0,"mode":4},{"attributes":{"NORMAL":48,"POSITION":22},"indices":74,"material":0,"mode":4},{"attributes":{"NORMAL":49,"POSITION":23},"indices":75,"material":0,"mode":4},{"attributes":{"NORMAL":50,"POSITION":24},"indices":76,"material":0,"mode":4},{"attributes":{"NORMAL":51,"POSITION":25},"indices":77,"material":0,"mode":4}]}],"nodes":[{"children":[1,2,3,4,5,6,7,8,9,10,11],"name":"right frame"},{"rotation":[0.7071067811865475,0.0,0.0,0.7071067811865476],"translation":[0.115,-0.26,0.156],"name":"Frame_Sketch009_Edge1"},{"rotation":[0.0,-0.7071067811865475,0.7071067811865475,0.0],"translation":[0.115,-0.018000000000000003,-0.234],"name":"Frame_Sketch009_Edge2"},{"rotation":[0.0,0.0,1.0,0.0],"translation":[0.115,-0.275,0.171],"name":"Frame_Sketch009_Edge3"},{"translation":[0.115,-0.003,-0.249],"name":"Frame_Sketch009_Edge4"},{"translation":[0.115,-0.033,-0.169],"name":"Frame_Sketch009_Edge5"},{"translation":[0.11500002288818359,-0.2450000457763672,-0.20700013732910159],"mesh":0,"name":"236-7194 90deg 3030 90deg m6"},{"rotation":[0.7071068407911907,1.2727923134241436e-15,1.2727923134241434e-15,0.7071067215818991],"translation":[0.11499999237060547,-0.06000006866455078,-0.23400004577636719],"mesh":1,"name":"236-7194 90deg 3030 90deg m007"},{"rotation":[0.7071068407911907,5.020458569617455e-15,5.020458569617455e-15,0.7071067215818991],"translation":[0.11500005340576172,-0.05999999618530274,-0.1540000915527344],"mesh":2,"name":"236-7194 90deg 3030 90deg m008"},{"translation":[0.11499998474121094,-0.246,-0.1280000457763672],"mesh":3,"name":"236-7194 90deg 3030 90deg m009"},{"rotation":[-0.7071068407911907,0.0,0.0,0.7071067215818991],"translation":[0.11500002288818359,-0.21799996948242188,0.156],"mesh":4,"name":"236-7194 90deg 3030 90deg m010"},{"rotation":[0.9999999999999991,2.350988701644577e-38,-7.099999999999991e-15,-4.371138822550557e-8],"translation":[0.11500002288818359,-0.03300002288818359,0.129],"mesh":5,"name":"236-7194 90deg 3030 90deg m011"}],"scene":0,"scenes":[{"nodes":[0]}]}